<svg width="60" height="61" viewBox="0 0 60 61" fill="none" xmlns="http://www.w3.org/2000/svg">
<g clip-path="url(#clip0_75_2253)">
<path d="M49.3359 26.9844V30.5C49.3359 40.5687 41.5992 48.8645 31.7578 49.7551V56.9844H40.5469C41.5172 56.9844 42.3047 57.7719 42.3047 58.7422C42.3047 59.7125 41.5172 60.5 40.5469 60.5H19.4531C18.4828 60.5 17.6953 59.7125 17.6953 58.7422C17.6953 57.7719 18.4828 56.9844 19.4531 56.9844H28.2422V49.7551C18.4008 48.8645 10.6641 40.5687 10.6641 30.5V26.9844C10.6641 26.0141 11.4516 25.2266 12.4219 25.2266H18.2812V28.7422H14.1797V30.5C14.1797 39.2234 21.2766 46.3203 30 46.3203C38.7234 46.3203 45.8203 39.2234 45.8203 30.5V28.7422H41.7188V25.2266H47.5781C48.5484 25.2266 49.3359 26.0141 49.3359 26.9844Z" fill="#0097F0"/>
<path d="M49.3359 26.9844V30.5C49.3359 40.5687 41.5992 48.8645 31.7578 49.7551V56.9844H40.5469C41.5172 56.9844 42.3047 57.7719 42.3047 58.7422C42.3047 59.7125 41.5172 60.5 40.5469 60.5H30V46.3203C38.7234 46.3203 45.8203 39.2234 45.8203 30.5V28.7422H41.7188V25.2266H47.5781C48.5484 25.2266 49.3359 26.0141 49.3359 26.9844Z" fill="#0052C2"/>
<path d="M30 0.5C23.2152 0.5 17.6953 6.01988 17.6953 12.8047V30.5C17.6953 37.2848 23.2152 42.8047 30 42.8047C36.7848 42.8047 42.3047 37.2848 42.3047 30.5V12.8047C42.3047 6.01988 36.7848 0.5 30 0.5Z" fill="#FFDA2D"/>
<path d="M42.3047 12.8047V30.5C42.3047 37.2852 36.7852 42.8047 30 42.8047V0.5C36.7852 0.5 42.3047 6.01953 42.3047 12.8047Z" fill="#FDBF00"/>
<path d="M12.4219 5.89062C11.4511 5.89062 10.6641 6.67766 10.6641 7.64844V16.4375C10.6641 17.4083 11.4511 18.1953 12.4219 18.1953C13.3927 18.1953 14.1797 17.4083 14.1797 16.4375V7.64844C14.1797 6.67766 13.3927 5.89062 12.4219 5.89062Z" fill="#FDBF00"/>
<path d="M5.39062 0.5C4.41984 0.5 3.63281 1.28703 3.63281 2.25781V21.7109C3.63281 22.6817 4.41984 23.4688 5.39062 23.4688C6.36141 23.4688 7.14844 22.6817 7.14844 21.7109V2.25781C7.14844 1.28703 6.36141 0.5 5.39062 0.5Z" fill="#FDBF00"/>
<path d="M47.5781 5.89062C46.6073 5.89062 45.8203 6.67766 45.8203 7.64844V16.4375C45.8203 17.4083 46.6073 18.1953 47.5781 18.1953C48.5489 18.1953 49.3359 17.4083 49.3359 16.4375V7.64844C49.3359 6.67766 48.5489 5.89062 47.5781 5.89062Z" fill="#FE9022"/>
<path d="M54.6094 0.5C53.6386 0.5 52.8516 1.28703 52.8516 2.25781V21.7109C52.8516 22.6817 53.6386 23.4688 54.6094 23.4688C55.5802 23.4688 56.3672 22.6817 56.3672 21.7109V2.25781C56.3672 1.28703 55.5802 0.5 54.6094 0.5Z" fill="#FE9022"/>
</g>
<defs>
<clipPath id="clip0_75_2253">
<rect width="60" height="60" fill="white" transform="translate(0 0.5)"/>
</clipPath>
</defs>
</svg>
