<svg width="60" height="61" viewBox="0 0 60 61" fill="none" xmlns="http://www.w3.org/2000/svg">
<path d="M38.3193 23C37.3486 23 36.5615 22.213 36.5615 21.2422V11.6328C36.5615 10.662 37.3486 9.875 38.3193 9.875C39.2901 9.875 40.0771 10.662 40.0771 11.6328V21.2422C40.0771 22.213 39.2901 23 38.3193 23Z" fill="#D48762"/>
<path d="M40.0752 21.2422V11.6328C40.0752 10.662 39.2882 9.875 38.3174 9.875V23C39.2882 23 40.0752 22.213 40.0752 21.2422Z" fill="#C3754C"/>
<path d="M52.3799 13.3906H36.5596V2.25781C36.5596 1.28703 37.3466 0.5 38.3174 0.5H52.329C52.8987 0.5 53.4512 0.750078 53.79 1.20793C54.2616 1.8452 54.2467 2.69844 53.7861 3.3125L51.0615 6.94531L53.7607 10.5443C54.0945 10.9893 54.2244 11.5652 54.0745 12.101C53.8574 12.8775 53.1575 13.3906 52.3799 13.3906Z" fill="#FF6641"/>
<path d="M52.3799 13.3906C53.1575 13.3906 53.8574 12.8775 54.0745 12.1009C54.2244 11.5651 54.0945 10.9892 53.7607 10.5441L51.0615 6.94531L53.7861 3.3125C54.2467 2.69844 54.2617 1.8452 53.79 1.20793C53.4512 0.750078 52.8987 0.5 52.329 0.5H38.3174V13.3906H52.3799Z" fill="#FB4021"/>
<path d="M26.791 45.0166L24.587 40.9475L23.0553 41.2184C22.3899 41.3361 21.9713 41.6244 21.392 42.0234C20.4316 42.6847 19.2363 43.5077 16.9922 43.5077C14.748 43.5077 13.5527 42.6847 12.5924 42.0233C12.013 41.6244 11.5943 41.3361 10.929 41.2183L8.52864 42.5515L0.212197 57.9049C-0.0828813 58.4496 -0.0694048 59.1093 0.247587 59.6416C0.56458 60.1739 1.13833 60.4999 1.75778 60.4999H25.2454C26.2162 60.4999 27.0033 59.7129 27.0033 58.7421V45.8538C27.0033 45.5614 26.9304 45.2736 26.791 45.0166Z" fill="#C3754C"/>
<path d="M25.2455 60.4999C26.2162 60.4999 27.0033 59.7129 27.0033 58.7421V45.8538C27.0033 45.5614 26.9304 45.2736 26.7911 45.0166L24.587 40.9475L23.0554 41.2184C22.39 41.3361 21.9714 41.6244 21.392 42.0234C20.4316 42.6847 19.2363 43.5077 16.9922 43.5077V60.4999H25.2455Z" fill="#A65F2D"/>
<path d="M25.4556 42.5517L18.5375 29.78C18.2303 29.2127 17.637 28.8594 16.9918 28.8594C16.3467 28.8594 15.7535 29.2127 15.4463 29.78L8.52832 42.5517L10.9287 42.9764C11.5941 43.094 12.0127 43.3823 12.592 43.7813C13.5525 44.4426 14.7478 45.2656 16.9918 45.2656C19.2359 45.2656 20.4313 44.4426 21.3916 43.7812C21.971 43.3823 22.3897 43.094 23.055 42.9762L25.4556 42.5517Z" fill="#E6F3FF"/>
<path d="M21.392 43.7813C21.9714 43.3824 22.3901 43.0941 23.0554 42.9764L25.4557 42.5517L25.4558 42.5516L18.5379 29.78C18.2306 29.2127 17.6373 28.8594 16.9922 28.8594V45.2656C19.2363 45.2656 20.4316 44.4426 21.392 43.7813Z" fill="#D2DCF0"/>
<path d="M59.7921 57.9175L48.9687 37.5441L46.1821 35.9041C44.8338 35.961 44.1879 36.328 43.294 36.836C42.1978 37.459 40.8334 38.2343 38.3179 38.2343C35.8023 38.2343 34.438 37.459 33.3416 36.836C32.4477 36.328 31.8018 35.961 30.4535 35.9041L27.6669 37.5441L15.4717 60.5H58.2397C59.5656 60.5 60.4141 59.0883 59.7921 57.9175Z" fill="#D48762"/>
<path d="M58.2393 60.5C59.565 60.5 60.4136 59.0882 59.7916 57.9175L48.9682 37.5441L46.1816 35.9041C44.8334 35.961 44.1874 36.328 43.2935 36.836C42.1973 37.459 40.8329 38.2343 38.3174 38.2343V60.5H58.2393Z" fill="#C3754C"/>
<path d="M33.3413 38.5939C34.4376 39.2168 35.802 39.9922 38.3176 39.9922C40.8331 39.9922 42.1974 39.2168 43.2938 38.5939C44.1877 38.0859 44.8337 37.7188 46.1819 37.6619L48.9685 37.5441L39.8701 20.4175C39.2091 19.1733 37.4264 19.1733 36.7654 20.4175L27.667 37.5441L30.4536 37.6619C31.8015 37.7188 32.4474 38.0859 33.3413 38.5939Z" fill="#E6F3FF"/>
<path d="M43.2936 38.5939C44.1875 38.0859 44.8335 37.7189 46.1817 37.6619L48.9683 37.5441L39.8698 20.4175C39.5393 19.7955 38.9284 19.4844 38.3174 19.4844V39.9922C40.8329 39.9922 42.1973 39.2169 43.2936 38.5939Z" fill="#D2DCF0"/>
</svg>
