<svg width="25" height="24" viewBox="0 0 25 24" fill="none" xmlns="http://www.w3.org/2000/svg">
<path d="M6.25025 19.7814H3.74975C3.19775 19.7814 2.75 19.3336 2.75 18.7816V14.6724C2.75 14.1204 3.19775 13.6726 3.74975 13.6726H6.2495C6.80225 13.6719 7.25 14.1196 7.25 14.6724V18.7816C7.25 19.3336 6.80225 19.7814 6.25025 19.7814Z" fill="#1F2937"/>
<path d="M13.7495 19.7812H11.2497C10.6977 19.7812 10.25 19.3335 10.25 18.7815V5.2185C10.25 4.6665 10.6977 4.21875 11.2497 4.21875H13.7495C14.3015 4.21875 14.7492 4.6665 14.7492 5.2185V18.7808C14.7492 19.3335 14.3015 19.7812 13.7495 19.7812Z" fill="#1F2937"/>
<path d="M21.2495 19.7812H18.7498C18.1978 19.7812 17.75 19.3335 17.75 18.7815V10.5623C17.75 10.0103 18.1978 9.5625 18.7498 9.5625H21.2495C21.8015 9.5625 22.2493 10.0103 22.2493 10.5623V18.7808C22.2493 19.3335 21.8015 19.7812 21.2495 19.7812Z" fill="#1F2937"/>
</svg>
